<svg width="18" height="18" viewBox="0 0 18 18" fill="none" xmlns="http://www.w3.org/2000/svg">
<path d="M11.25 13.5H3C2.20435 13.5 1.44129 13.1839 0.87868 12.6213C0.316071 12.0587 0 11.2956 0 10.5V4.5C0 3.50544 0.395088 2.55161 1.09835 1.84835C1.80161 1.14509 2.75544 0.75 3.75 0.75H7.5C7.99246 0.75 8.48009 0.846997 8.93506 1.03545C9.39003 1.22391 9.80343 1.50013 10.1517 1.84835C10.4999 2.19657 10.7761 2.60997 10.9645 3.06494C11.153 3.51991 11.25 4.00754 11.25 4.5V13.5ZM18 8.25V7.5C18 7.00754 17.903 6.51991 17.7145 6.06494C17.5261 5.60997 17.2499 5.19657 16.9016 4.84835C16.5534 4.50013 16.14 4.22391 15.6851 4.03545C15.2301 3.847 14.7425 3.75 14.25 3.75H12.75V8.25H18ZM12.75 9.75V13.5H15C15.7956 13.5 16.5587 13.1839 17.1213 12.6213C17.6839 12.0587 18 11.2956 18 10.5V9.75H12.75ZM3.0435 15C3.01603 15.1232 3.00145 15.2488 3 15.375C3 15.8723 3.19754 16.3492 3.54917 16.7008C3.90081 17.0525 4.37772 17.25 4.875 17.25C5.37228 17.25 5.84919 17.0525 6.20083 16.7008C6.55246 16.3492 6.75 15.8723 6.75 15.375C6.74855 15.2488 6.73397 15.1232 6.7065 15H3.0435ZM11.2935 15C11.266 15.1232 11.2514 15.2488 11.25 15.375C11.25 15.8723 11.4475 16.3492 11.7992 16.7008C12.1508 17.0525 12.6277 17.25 13.125 17.25C13.6223 17.25 14.0992 17.0525 14.4508 16.7008C14.8025 16.3492 15 15.8723 15 15.375C14.9986 15.2488 14.984 15.1232 14.9565 15H11.2935Z" fill="#667085"/>
</svg>
